<svg id="Capa_1" enable-background="new 0 0 512 512" height="512" viewBox="0 0 512 512" width="512" xmlns="http://www.w3.org/2000/svg"><g><g><g><g><g><g><g><circle cx="256" cy="256" fill="#b46e5a" r="256"/></g></g></g></g></g></g><path d="m512 256c0-.258 0-.516-.001-.774l-136.795-136.795-252.486 269.437 43.428 43.428-19.929 20.704 53.877 53.877c17.995 4.008 36.703 6.123 55.906 6.123 141.385 0 256-114.615 256-256z" fill="#915041"/><g><g><path d="m438.027 256c0-8.652-6.584-16.737-7.77-25.061-1.216-8.531 2.816-18.135.442-26.235-2.416-8.24-11.015-14.142-14.537-21.843-3.561-7.786-2.414-18.145-7.011-25.283-4.625-7.182-14.538-10.422-20.113-16.85-5.586-6.441-7.392-16.711-13.832-22.297-6.429-5.575-16.848-5.911-24.03-10.536-7.139-4.597-11.753-13.951-19.539-17.512-7.701-3.522-17.786-.908-26.027-3.323-8.099-2.374-15.17-10.04-23.701-11.256-8.324-1.186-17.256 4.17-25.907 4.17s-17.584-5.356-25.908-4.17c-8.531 1.216-15.601 8.882-23.7 11.256-8.24 2.416-18.326-.199-26.026 3.323-7.786 3.562-12.401 12.915-19.539 17.512-7.182 4.625-17.602 4.961-24.03 10.536-6.441 5.586-8.247 15.856-13.833 22.296-5.575 6.428-15.488 9.668-20.113 16.85-4.597 7.139-3.45 17.497-7.012 25.284-3.522 7.701-12.122 13.603-14.537 21.843-2.374 8.099 1.657 17.704.441 26.235-1.186 8.324-7.77 16.409-7.77 25.061 0 6.219 3.396 12.146 5.75 18.079h352.554c2.352-5.933 5.748-11.86 5.748-18.079z" fill="#fff"/></g></g><g><g><path d="m438.027 256c0-8.652-6.584-16.737-7.77-25.061-1.216-8.531 2.816-18.135.442-26.235-2.416-8.24-11.015-14.142-14.537-21.843-3.561-7.786-2.414-18.145-7.011-25.283-4.625-7.182-14.538-10.422-20.113-16.85-5.586-6.441-7.392-16.711-13.832-22.297-6.429-5.575-16.848-5.911-24.03-10.536-7.139-4.597-11.753-13.951-19.539-17.512-7.701-3.522-17.786-.908-26.027-3.323-8.099-2.374-15.17-10.04-23.701-11.256-8.324-1.186-17.256 4.17-25.907 4.17-.052 0-.104-.005-.156-.006v194.112h176.433c2.352-5.934 5.748-11.861 5.748-18.08z" fill="#e9edf5"/></g></g><g><g><g><g><g><g><path d="m68.668 263.654c4.017 100.003 86.343 179.846 187.332 179.846s183.315-79.843 187.332-179.846z" fill="#ffce00"/></g></g></g></g></g></g><g><g><g><g><g><g><path d="m255.844 263.654v179.844c.052 0 .104.002.156.002 100.989 0 183.315-79.843 187.332-179.846z" fill="#fdba12"/></g></g></g></g></g></g><g><circle cx="160.226" cy="146.043" fill="#e9edf5" r="14.009"/></g><g><circle cx="188.244" cy="178.948" fill="#e9edf5" r="14.009"/></g><g><circle cx="146.217" cy="192.957" fill="#e9edf5" r="14.009"/></g><g><circle cx="374.271" cy="220.975" fill="#cdd2e1" r="14.009"/></g><g><circle cx="360.262" cy="174.061" fill="#cdd2e1" r="14.009"/></g><g><path d="m146.217 408.011h219.566v43.989h-219.566z" fill="#fa0"/></g><g><path d="m255.844 408.01h109.939v43.99h-109.939z" fill="#ff9500"/></g></g></svg>